<svg xmlns="http://www.w3.org/2000/svg" xmlns:xlink="http://www.w3.org/1999/xlink" width="726.157" height="661.566" viewBox="0 0 726.157 661.566">
  <defs>
    <style>
      .cls-1 {
        fill: #0071fb;
        stroke: #707070;
      }

      .cls-2 {
        fill: url(#linear-gradient);
      }

      .cls-3 {
        fill: #071e3b;
      }
    </style>
    <linearGradient id="linear-gradient" x1="0.5" x2="0.5" y2="1" gradientUnits="objectBoundingBox">
      <stop offset="0" stop-color="#0071fb"/>
      <stop offset="1" stop-color="#00397e"/>
    </linearGradient>
  </defs>
  <g id="Group_27" data-name="Group 27" transform="translate(80 89)">
    <path id="Path_1" data-name="Path 1" class="cls-1" d="M4.176,16.85c-9.395,37.913,0,151.651,0,151.651h13.4L41.755,16.85S13.57-21.063,4.176,16.85Z" transform="translate(15.502 438.342) rotate(-166)"/>
    <path id="Path_52" data-name="Path 52" class="cls-2" d="M180.144,0A180.144,180.144,0,1,1,0,180.144,180.144,180.144,0,0,1,180.144,0Z" transform="translate(-80 -89)"/>
    <path id="Path_6" data-name="Path 6" class="cls-1" d="M7.142,28.82c-16.069,64.845,0,259.38,0,259.38H30.054L71.417,28.82S23.211-36.025,7.142,28.82Z" transform="translate(267.739 549.847) rotate(162)"/>
    <path id="Path_7" data-name="Path 7" class="cls-1" d="M3.156,12.737c-7.1,28.658,0,114.632,0,114.632H13.282L31.563,12.737S10.258-15.921,3.156,12.737Z" transform="translate(385.987 -50.009) rotate(63)"/>
    <path id="Path_8" data-name="Path 8" class="cls-1" d="M8.56,34.545c-19.261,77.727,0,310.908,0,310.908H36.024L85.6,34.545S27.822-43.182,8.56,34.545Z" transform="translate(645.643 83.105) rotate(90)"/>
    <path id="Path_37" data-name="Path 37" class="cls-1" d="M10.008,40.386c-22.518,90.87,0,363.479,0,363.479H42.115L100.08,40.386S32.526-50.483,10.008,40.386Z" transform="translate(585.866 452.511) rotate(130)"/>
    <path id="Path_47" data-name="Path 47" class="cls-3" d="M4.176,16.85c-9.395,37.913,0,151.651,0,151.651h13.4L41.755,16.85S13.57-21.063,4.176,16.85Z" transform="matrix(-0.978, -0.208, 0.208, -0.978, 24.873, 439.523)"/>
    <path id="Path_48" data-name="Path 48" class="cls-3" d="M7.142,28.82c-16.069,64.845,0,259.38,0,259.38H30.054L71.417,28.82S23.211-36.025,7.142,28.82Z" transform="translate(280.848 542.157) rotate(160)"/>
    <path id="Path_49" data-name="Path 49" class="cls-3" d="M3.156,12.737c-7.1,28.658,0,114.632,0,114.632H13.282L31.563,12.737S10.258-15.921,3.156,12.737Z" transform="translate(378.089 -61.461) rotate(61)"/>
    <path id="Path_50" data-name="Path 50" class="cls-3" d="M8.56,34.545c-19.261,77.727,0,310.908,0,310.908H36.024L85.6,34.545S27.822-43.182,8.56,34.545Z" transform="translate(642.232 62.51) rotate(88)"/>
    <path id="Path_51" data-name="Path 51" class="cls-3" d="M10.008,40.386c-22.518,90.87,0,363.479,0,363.479H42.115L100.08,40.386S32.526-50.483,10.008,40.386Z" transform="translate(595.384 433.778) rotate(128)"/>
  </g>
</svg>
