<svg xmlns="http://www.w3.org/2000/svg" width="683.499" height="910.644" viewBox="0 0 683.499 910.644">
  <defs>
    <style>
      .cls-1 {
        fill: none;
      }

      .cls-2, .cls-3 {
        fill: #37f954;
        stroke: #000;
      }

      .cls-2 {
        stroke-width: 3px;
      }

      .cls-3 {
        stroke-width: 2px;
      }
    </style>
  </defs>
  <g id="Group_6" data-name="Group 6" transform="translate(-386 299)">
    <rect id="z_Kg14p4TlGgtRVJLXbT_g_thumb_423" data-name="z%Kg14p4TlGgtRVJLXbT+g_thumb_423" class="cls-1" width="683.499" height="910.644" transform="translate(386 -299)"/>
    <g id="Group_2" data-name="Group 2" transform="translate(645 -24.153)">
      <path id="Path_3" data-name="Path 3" class="cls-2" d="M-112.452-25.475a303.573,303.573,0,0,1,33.463-5.886c17.67-2.018,37.215-2.185,37.215-2.185" transform="translate(137.949 92.657)"/>
      <path id="Path_4" data-name="Path 4" class="cls-2" d="M21.37-33.53a290.976,290.976,0,0,1,33.6,0,286.164,286.164,0,0,1,33.137,4.461" transform="translate(142.295 92.642)"/>
      <path id="Path_5" data-name="Path 5" class="cls-2" d="M-34.224-60.037a9.85,9.85,0,0,0,3.179-8.206c-.578-5.078-7.255-10.943-7.255-10.943s-9.336-2.694-29.742-6.453-39.566,4.566-39.566,4.566a26.028,26.028,0,0,0-11.732,8.661c-4.484,6.281-10.989,18.35-10.989,18.35l-3.056,10.409s8.856-11.149,16.018-17.3,12.631-7.294,12.631-7.294a108.937,108.937,0,0,1,31.714-.927C-55.395-67.118-34.224-60.037-34.224-60.037Z" transform="translate(140.003 90.934)"/>
      <path id="Path_6" data-name="Path 6" class="cls-2" d="M8.715-78.868S54.771-91.9,67.6-90.723c1.052,0,16.777,1.713,26.49,6.6S106.82-72.4,106.82-72.4A40.5,40.5,0,0,1,112.5-60.441a135.676,135.676,0,0,1,2.433,14.33s-8.422-12.145-15.474-17.582S87.709-68.9,87.709-68.9,81.447-73.48,62.3-71.365,11.118-60.441,11.118-60.441,7-64.354,6.4-68.961,8.715-78.868,8.715-78.868Z" transform="translate(141.806 90.798)"/>
      <path id="Path_7" data-name="Path 7" class="cls-2" d="M-150.649,5.045s8.681,41.8,15.585,65.377,12.033,28.929,12.033,28.929,6.7,4.671,7.572,3.2,10.447-32.127,10.447-32.127a233.463,233.463,0,0,1,32.838-9.644C-54.679,57.12-35.694,54.4-35.694,54.4l16.376,6.382s4.856.807,6.25,0S1.285,54.4,1.285,54.4s15.15,2.114,31.78,6.382,32.746,9.644,32.746,9.644L80.477,99.351,109.921,5.045s.257,67.054-10.77,111.943S84.6,160.726,65.812,184.6s-31.1,32.124-31.1,32.124S8.64,229.819-15.56,229.819s-46.526-13.092-46.526-13.092-28.353-14.819-49.185-36.672-14.2-19.48-26.086-58.995S-150.649,5.045-150.649,5.045Z" transform="translate(150.649 93.911)"/>
      <path id="Path_8" data-name="Path 8" class="cls-3" d="M-71.043,94.419l134.719,2.3a272.764,272.764,0,0,1-32.493,10.519c-16.135,3.922-32.326,0-32.326,0s-16.6,4.5-34.145,0S-71.043,94.419-71.043,94.419Z" transform="translate(136.196 95.632)"/>
      <path id="Path_9" data-name="Path 9" class="cls-3" d="M-5.292,83.349a96.855,96.855,0,0,0,12.957,0c5.2-.526,9.56-1.049,9.56-1.049s63.564,6.48,42.281,8.822S-41.533,92.955-70.115,90.015s42.843-7.292,44.366-7.715c.743-.207,11.374,1.049,11.374,1.049Z" transform="translate(139.105 101.233)"/>
      <path id="Path_10" data-name="Path 10" class="cls-2" d="M-29.847-56.816s8.291,1.566,4.192,32.333S-38.723,22.024-38.723,22.024-45.51,20.242-52.706,28.7s-2.872,18.864-5.923,22.448" transform="translate(145.892 91.902)"/>
    </g>
    <path id="Path_13" data-name="Path 13" class="cls-2" d="M-136.777-14.942c1-2.049-.875-126.118,37.3-147.684S-40.78-192.1.871-192.1s68.164,7.228,102.113,42.969S128.6-3.545,128.6-3.545l22.539-157.7s-2.633-36.429-16.815-68.391-27.136-38.7-77.507-60.876S-65.12-286.925-84.731-273.033s-51.521,19.757-63.645,65.858-2.051,53.852,0,102.97A525.257,525.257,0,0,0-136.777-14.942Z" transform="translate(778.38 72.919)"/>
  </g>
</svg>
