<svg xmlns="http://www.w3.org/2000/svg" width="845.237" height="1126.132" viewBox="0 0 845.237 1126.132">
  <g id="Group_20" data-name="Group 20" transform="translate(232 -1020)">
    <g id="Group_14" data-name="Group 14" transform="translate(-605 2373.132)">
      <g id="Group_4" data-name="Group 4" transform="translate(-13 -1054.132)">
        <rect id="z_Kg14p4TlGgtRVJLXbT_g_thumb_423" data-name="z%Kg14p4TlGgtRVJLXbT+g_thumb_423" width="845.237" height="1126.132" transform="translate(386 -299)" fill="none"/>
        <g id="Group_2" data-name="Group 2" transform="translate(706.288 40.885)">
          <path id="Path_5" data-name="Path 5" d="M-10.76-53.748A12.181,12.181,0,0,0-6.828-63.9C-7.543-70.18-15.8-77.432-15.8-77.432s-11.545-3.332-36.78-7.98-48.928,5.647-48.928,5.647-8.963,2.943-14.509,10.71-13.59,22.692-13.59,22.692l-3.779,12.873s10.951-13.787,19.808-21.389,15.62-9.02,15.62-9.02a134.714,134.714,0,0,1,39.219-1.146C-36.94-62.5-10.76-53.748-10.76-53.748Z" transform="translate(138.188 91.956)" fill="#006679" stroke="#d6de11" stroke-width="3"/>
          <path id="Path_6" data-name="Path 6" d="M9.282-76.045S66.236-92.156,82.106-90.706c1.3,0,20.746,2.118,32.759,8.162s15.736,14.5,15.736,14.5,5.156,7.176,7.03,14.783A167.784,167.784,0,0,1,140.64-35.54S130.224-50.555,121.5-57.28s-14.536-6.442-14.536-6.442-7.744-5.66-31.423-3.044S12.253-53.258,12.253-53.258,7.165-58.1,6.423-63.794,9.282-76.045,9.282-76.045Z" transform="translate(176.858 90.798)" fill="#006679" stroke="#d6de11" stroke-width="3"/>
          <path id="Path_7" data-name="Path 7" d="M-150.649,5.045s10.735,51.692,19.273,80.848,14.881,35.774,14.881,35.774,8.29,5.776,9.363,3.955,12.92-39.73,12.92-39.73A288.7,288.7,0,0,1-53.6,73.966c21.633-4.524,45.111-7.893,45.111-7.893l20.25,7.893s6,1,7.729,0,17.75-7.893,17.75-7.893,18.735,2.615,39.3,7.893,40.5,11.926,40.5,11.926l18.135,35.774L171.581,5.045s.318,82.921-13.319,138.433-18,54.088-41.229,83.614-38.455,39.726-38.455,39.726-32.245,16.19-62.172,16.19-57.536-16.19-57.536-16.19-35.062-18.325-60.824-45.35-17.562-24.089-32.259-72.955S-150.649,5.045-150.649,5.045Z" transform="translate(150.649 117.327)" fill="#006679" stroke="#d6de11" stroke-width="3"/>
          <path id="Path_8" data-name="Path 8" d="M-71.043,94.419l166.6,2.845a337.311,337.311,0,0,1-40.182,13.008c-19.954,4.85-39.975,0-39.975,0s-20.528,5.561-42.224,0S-71.043,94.419-71.043,94.419Z" transform="translate(151.613 140.604)" fill="#006679" stroke="#d6de11" stroke-width="1"/>
          <path id="Path_9" data-name="Path 9" d="M11.643,83.6a119.778,119.778,0,0,0,16.023,0c6.435-.65,11.822-1.3,11.822-1.3s78.605,8.014,52.287,10.91S-33.174,95.481-68.519,91.847s52.981-9.018,54.864-9.541C-12.735,82.05.411,83.6.411,83.6Z" transform="translate(153.834 144.657)" fill="#006679" stroke="#d6de11" stroke-width="1"/>
          <path id="Path_10" data-name="Path 10" d="M-23.037-56.816s10.253,1.937,5.184,39.983S-34.013,40.68-34.013,40.68s-8.394-2.2-17.291,8.25-3.551,23.327-7.324,27.76" transform="translate(166.541 100.204)" fill="#006679" stroke="#d6de11" stroke-width="3"/>
          <g id="Path_18" data-name="Path 18" transform="translate(35.712 54.247)">
            <path id="Path_22" data-name="Path 22" d="M22.4,30.624c-5.619,0-11.351-.144-15.209-1.189A8.55,8.55,0,0,1,3.458,27.6a3.624,3.624,0,0,1-1.1-2.775,20.119,20.119,0,0,1,1.583-7.4A24.834,24.834,0,0,1,9.69,9.014,31.806,31.806,0,0,1,21.145,2.069,56.106,56.106,0,0,1,40.032-.885h.21a54.624,54.624,0,0,1,18.712,2.92A30.807,30.807,0,0,1,70.212,8.978a24.619,24.619,0,0,1,5.6,8.429,20.781,20.781,0,0,1,1.526,7.419,4.2,4.2,0,0,1-.4,2.082,2.116,2.116,0,0,1-1.169.9c-1.505.6-4.149.735-7.809.92-1.813.091-3.869.2-6.209.375-.787.061-1.711.135-2.69.213C53.178,29.788,44.292,30.5,38.5,30.5c-3.045,0-5.969.034-8.8.066C27.131,30.6,24.7,30.624,22.4,30.624Z" fill="#fff"/>
            <path id="Path_23" data-name="Path 23" d="M40.242.614h-.206A54.627,54.627,0,0,0,21.656,3.48,30.321,30.321,0,0,0,10.735,10.09C5.666,15.011,3.859,20.928,3.859,24.825a2.13,2.13,0,0,0,.645,1.7,7.269,7.269,0,0,0,3.074,1.462c3.7,1,9.566,1.137,14.817,1.137,2.3,0,4.722-.028,7.29-.058C32.518,29.034,35.446,29,38.5,29c5.732,0,14.582-.709,20.439-1.178.98-.078,1.9-.153,2.694-.213,2.36-.182,4.426-.286,6.248-.378,3.382-.171,6.054-.305,7.328-.815a1.009,1.009,0,0,0,.43-.265,2.854,2.854,0,0,0,.2-1.326,19,19,0,0,0-1.42-6.866,23.128,23.128,0,0,0-5.26-7.917,29.322,29.322,0,0,0-10.717-6.6A53.145,53.145,0,0,0,40.242.614m0-3c31.283,0,38.593,18.394,38.593,27.211,0,5.991-4.712,4.83-16.971,5.775C56.46,31.017,45.347,32,38.5,32c-5.81,0-11.258.124-16.1.124-12.889,0-21.536-.877-21.536-7.3,0-8.837,7.705-27.126,39.168-27.21Z" fill="#707070"/>
          </g>
          <g id="Path_19" data-name="Path 19" transform="translate(194.712 55.247)">
            <path id="Path_24" data-name="Path 24" d="M22.4,30.624c-5.619,0-11.351-.144-15.209-1.189A8.55,8.55,0,0,1,3.458,27.6a3.624,3.624,0,0,1-1.1-2.775,20.119,20.119,0,0,1,1.583-7.4A24.834,24.834,0,0,1,9.69,9.014,31.806,31.806,0,0,1,21.145,2.069,56.106,56.106,0,0,1,40.032-.885h.21a54.624,54.624,0,0,1,18.712,2.92A30.807,30.807,0,0,1,70.212,8.978a24.619,24.619,0,0,1,5.6,8.429,20.781,20.781,0,0,1,1.526,7.419,4.2,4.2,0,0,1-.4,2.082,2.116,2.116,0,0,1-1.169.9c-1.505.6-4.149.735-7.809.92-1.813.091-3.869.2-6.209.375-.787.061-1.711.135-2.69.213C53.178,29.788,44.292,30.5,38.5,30.5c-3.045,0-5.969.034-8.8.066C27.131,30.6,24.7,30.624,22.4,30.624Z" fill="#fff"/>
            <path id="Path_25" data-name="Path 25" d="M40.242.614h-.206A54.627,54.627,0,0,0,21.656,3.48,30.321,30.321,0,0,0,10.735,10.09C5.666,15.011,3.859,20.928,3.859,24.825a2.13,2.13,0,0,0,.645,1.7,7.269,7.269,0,0,0,3.074,1.462c3.7,1,9.566,1.137,14.817,1.137,2.3,0,4.722-.028,7.29-.058C32.518,29.034,35.446,29,38.5,29c5.732,0,14.582-.709,20.439-1.178.98-.078,1.9-.153,2.694-.213,2.36-.182,4.426-.286,6.248-.378,3.382-.171,6.054-.305,7.328-.815a1.009,1.009,0,0,0,.43-.265,2.854,2.854,0,0,0,.2-1.326,19,19,0,0,0-1.42-6.866,23.128,23.128,0,0,0-5.26-7.917,29.322,29.322,0,0,0-10.717-6.6A53.145,53.145,0,0,0,40.242.614m0-3c31.283,0,38.593,18.394,38.593,27.211,0,5.991-4.712,4.83-16.971,5.775C56.46,31.017,45.347,32,38.5,32c-5.81,0-11.258.124-16.1.124-12.889,0-21.536-.877-21.536-7.3,0-8.837,7.705-27.126,39.168-27.21Z" fill="#707070"/>
          </g>
          <g id="Ellipse_2" data-name="Ellipse 2" transform="translate(59.712 54.247)" fill="#0a0101" stroke="#707070" stroke-width="1">
            <ellipse cx="17.5" cy="16" rx="17.5" ry="16" stroke="none"/>
            <ellipse cx="17.5" cy="16" rx="17" ry="15.5" fill="none"/>
          </g>
          <path id="Path_17" data-name="Path 17" d="M40.363,67.7" fill="none" stroke="#707070" stroke-width="1"/>
          <g id="Ellipse_6" data-name="Ellipse 6" transform="translate(217.712 54.247)" fill="#0a0101" stroke="#707070" stroke-width="1">
            <ellipse cx="17.5" cy="16" rx="17.5" ry="16" stroke="none"/>
            <ellipse cx="17.5" cy="16" rx="17" ry="15.5" fill="none"/>
          </g>
        </g>
        <path id="Path_13" data-name="Path 13" d="M-149.815,54.015C-148.579,51.482-118.906-87.529-82.5-128.6s65.741-38.155,117.248-38.155,78.069-1.363,119.772,52.527S209.2,62.859,209.2,62.859L220.571-128.6s-3.256-45.049-20.793-84.575-33.558-47.857-95.848-75.281-150.788,4.43-175.04,21.609-63.713,24.432-78.705,81.442-14.29,66-11.754,126.736A950.577,950.577,0,0,0-149.815,54.015Z" transform="translate(837.559 90.132)" fill="#006679" stroke="#707070" stroke-width="1"/>
      </g>
    </g>
    <g id="Ellipse_12" data-name="Ellipse 12" transform="translate(161 1426)" fill="#fff" stroke="#707070" stroke-width="1">
      <circle cx="5.5" cy="5.5" r="5.5" stroke="none"/>
      <circle cx="5.5" cy="5.5" r="5" fill="none"/>
    </g>
    <g id="Ellipse_13" data-name="Ellipse 13" transform="translate(318 1426)" fill="#fff" stroke="#707070" stroke-width="1">
      <circle cx="5.5" cy="5.5" r="5.5" stroke="none"/>
      <circle cx="5.5" cy="5.5" r="5" fill="none"/>
    </g>
  </g>
</svg>
