<svg xmlns="http://www.w3.org/2000/svg" width="62.914" height="43.429" viewBox="0 0 62.914 43.429">
  <defs>
    <style>
      .cls-1, .cls-2 {
        fill: #09f2f2;
      }

      .cls-1 {
        stroke: #707070;
      }
    </style>
  </defs>
  <g id="Group_8" data-name="Group 8" transform="translate(-431.983 -710.774)">
    <g id="Group_1" data-name="Group 1" transform="translate(432.609 711.499)">
      <path id="Path_4" data-name="Path 4" class="cls-1" d="M.369,1.491c-.831,3.354,0,13.416,0,13.416H1.554L3.694,1.491S1.2-1.863.369,1.491Z" transform="translate(6.952 23.397) rotate(167)"/>
      <path id="Path_5" data-name="Path 5" class="cls-1" d="M.269,1.084c-.6,2.438,0,9.753,0,9.753H1.13L2.685,1.084S.873-1.355.269,1.084Z" transform="matrix(-0.766, 0.643, -0.643, -0.766, 18.822, 19.024)"/>
      <path id="Path_9" data-name="Path 9" class="cls-1" d="M.124.523a25.677,25.677,0,0,0,0,4.709h.4L1.237.523S.4-.654.124.523Z" transform="matrix(0.375, 0.927, -0.927, 0.375, 11.359, 14.18)"/>
      <path id="Path_10" data-name="Path 10" class="cls-1" d="M.119.481a22.541,22.541,0,0,0,0,4.332H.5L1.193.481S.388-.6.119.481Z" transform="matrix(0.342, 0.94, -0.94, 0.342, 8.577, 7.946)"/>
      <path id="Path_11" data-name="Path 11" class="cls-1" d="M.163.659a30.841,30.841,0,0,0,0,5.926H.687L1.632.659S.53-.823.163.659Z" transform="translate(13.225 19.65) rotate(67)"/>
      <path id="Path_12" data-name="Path 12" class="cls-1" d="M.269,1.084c-.6,2.438,0,9.753,0,9.753H1.13L2.685,1.084S.873-1.355.269,1.084Z" transform="matrix(-0.94, 0.342, -0.342, -0.94, 21.361, 18.744)"/>
      <path id="Path_13" data-name="Path 13" class="cls-1" d="M.269,1.084c-.6,2.438,0,9.753,0,9.753H1.13L2.685,1.084S.873-1.355.269,1.084Z" transform="matrix(-0.94, 0.342, -0.342, -0.94, 25.043, 17.661)"/>
      <path id="Path_14" data-name="Path 14" class="cls-1" d="M.269,1.084c-.6,2.438,0,9.753,0,9.753H1.13L2.685,1.084S.873-1.355.269,1.084Z" transform="matrix(-0.629, 0.777, -0.777, -0.629, 30.414, 13.373)"/>
      <path id="Path_15" data-name="Path 15" class="cls-1" d="M.158.636a29.78,29.78,0,0,0,0,5.723H.663L1.576.636S.512-.795.158.636Z" transform="matrix(0.643, 0.766, -0.766, 0.643, 25.469, 8.553)"/>
      <path id="Path_16" data-name="Path 16" class="cls-1" d="M.269,1.084c-.6,2.438,0,9.753,0,9.753H1.13L2.685,1.084S.873-1.355.269,1.084Z" transform="matrix(-0.766, 0.643, -0.643, -0.766, 34.383, 12.165)"/>
      <path id="Path_17" data-name="Path 17" class="cls-1" d="M.269,1.084c-.6,2.438,0,9.753,0,9.753H1.13L2.685,1.084S.873-1.355.269,1.084Z" transform="translate(38.003 7.469) rotate(108)"/>
      <path id="Path_18" data-name="Path 18" class="cls-1" d="M.269,1.084c-.6,2.438,0,9.753,0,9.753H1.13L2.685,1.084S.873-1.355.269,1.084Z" transform="matrix(-0.766, 0.643, -0.643, -0.766, 38.39, 8.302)"/>
    </g>
    <g id="Group_7" data-name="Group 7" transform="translate(447.452 727.893)">
      <g id="Group_3" data-name="Group 3" transform="translate(0 6.956) rotate(-1)">
        <path id="Path_22" data-name="Path 22" class="cls-1" d="M.186.75c-.418,1.687,0,6.75,0,6.75h.6L1.858.75S.6-.937.186.75Z" transform="translate(3.854 10.467) rotate(164)"/>
        <path id="Path_23" data-name="Path 23" class="cls-1" d="M.186.75c-.418,1.687,0,6.75,0,6.75h.6L1.858.75S.6-.937.186.75Z" transform="translate(1.063 4.533) rotate(-112)"/>
        <path id="Path_24" data-name="Path 24" class="cls-1" d="M.186.75c-.418,1.687,0,6.75,0,6.75h.6L1.858.75S.6-.937.186.75Z" transform="translate(9.87 8.006) rotate(76)"/>
        <path id="Path_25" data-name="Path 25" class="cls-1" d="M.186.75c-.418,1.687,0,6.75,0,6.75h.6L1.858.75S.6-.937.186.75Z" transform="matrix(-0.996, 0.087, -0.087, -0.996, 10.728, 16.92)"/>
        <path id="Path_26" data-name="Path 26" class="cls-1" d="M.186.75c-.418,1.687,0,6.75,0,6.75h.6L1.858.75S.6-.937.186.75Z" transform="translate(9.157 14.897) rotate(74)"/>
      </g>
      <g id="Group_2" data-name="Group 2" transform="translate(11.083 12.646) rotate(-8)">
        <path id="Path_27" data-name="Path 27" class="cls-1" d="M.2.825C-.255,2.68.2,8.245.2,8.245H.86L2.043.825S.664-1.031.2.825Z" transform="translate(2.134 0.427) rotate(15)"/>
        <path id="Path_28" data-name="Path 28" class="cls-1" d="M.2.825C-.255,2.68.2,8.245.2,8.245H.86L2.043.825S.664-1.031.2.825Z" transform="translate(8.187 8.103) rotate(148)"/>
        <path id="Path_29" data-name="Path 29" class="cls-1" d="M.2.825C-.255,2.68.2,8.245.2,8.245H.86L2.043.825S.664-1.031.2.825Z" transform="translate(8.656 8.899) rotate(-172)"/>
        <path id="Path_30" data-name="Path 30" class="cls-1" d="M.2.825C-.255,2.68.2,8.245.2,8.245H.86L2.043.825S.664-1.031.2.825Z" transform="translate(8.592 1.022) rotate(-30)"/>
      </g>
      <g id="Group_6" data-name="Group 6" transform="translate(20.229 0) rotate(9)">
        <path id="Path_31" data-name="Path 31" class="cls-1" d="M.208.84C-.26,2.729.208,8.4.208,8.4H.876L2.081.84S.676-1.05.208.84Z" transform="matrix(-0.839, 0.545, -0.545, -0.839, 11.657, 15.373)"/>
        <circle id="Ellipse_2" data-name="Ellipse 2" class="cls-2" cx="3.235" cy="3.235" r="3.235"/>
      </g>
      <g id="Group_5" data-name="Group 5" transform="translate(29.354 3.726) rotate(7)">
        <path id="Path_32" data-name="Path 32" class="cls-1" d="M.279,1.126c-.628,2.533,0,10.134,0,10.134h.9L2.79,1.126S.907-1.407.279,1.126Z" transform="translate(8.398 9.942) rotate(152)"/>
        <path id="Path_33" data-name="Path 33" class="cls-1" d="M.219.884c-.493,1.989,0,7.956,0,7.956h.7L2.19.884S.712-1.1.219.884Z" transform="translate(0.821 7.674) rotate(-112)"/>
      </g>
      <g id="Group_4" data-name="Group 4" transform="translate(36.913 3.63) rotate(3)">
        <path id="Path_34" data-name="Path 34" class="cls-1" d="M.157.632a29.58,29.58,0,0,0,0,5.684h.5L1.565.632S.509-.789.157.632Z" transform="translate(2.672 6.721) rotate(-112)"/>
        <path id="Path_35" data-name="Path 35" class="cls-1" d="M.285,1.151c-.642,2.59,0,10.358,0,10.358H1.2L2.852,1.151S.927-1.439.285,1.151Z" transform="translate(6.269 10.946) rotate(162)"/>
        <path id="Path_36" data-name="Path 36" class="cls-1" d="M.219.884c-.493,1.989,0,7.956,0,7.956h.7L2.19.884S.712-1.1.219.884Z" transform="matrix(-0.946, 0.326, -0.326, -0.946, 10.344, 8.412)"/>
      </g>
    </g>
  </g>
</svg>
