<svg xmlns="http://www.w3.org/2000/svg" width="125" height="150" viewBox="0 0 260.607 296.336">
  <defs>
    <style>
      .cls-1, .cls-5 {
        fill: #fff;
      }

      .cls-1, .cls-3, .cls-4, .cls-5 {
        stroke: #707070;
      }

      .cls-2 {
        fill: #de0707;
      }

      .cls-3 {
        fill: #0c0b07;
      }

      .cls-4, .cls-7 {
        fill: none;
      }

      .cls-5 {
        stroke-width: 0.5px;
      }

      .cls-6 {
        stroke: none;
      }
    </style>
  </defs>
  <g id="Group_1" data-name="Group 1" transform="translate(-807.811 -57.911) rotate(-2)">
    <path id="Path_1" data-name="Path 1" class="cls-1" d="M845.077,368.31l16.565,13.582,9.148-9.7,8.11-6.666,43.417-43.711,2.99-1.194,3.5,2.458s-7.154,9.545-8.5,10.1-11.431,9.553-11.431,9.553l2.87,5.382,8.562,2.821,7.157-1.448,9.208-10.483,21.443-21.817,13.371-15.32L998.59,275.5h1.963l7.85,7.218,3.392,4.063,6.1,1.892,6-5.954,1.5-8.739v-5.65l2.047-8.991s1.656-3.977,1.271-4.746a51.055,51.055,0,0,1-1.271-5.391l2.647-3.763,2.845-4.251,6.7-5.2,3.939-4.174s5.176-.275,5.118-.928a17.049,17.049,0,0,1,.962-3.364l-.962-2.774,6.324-6.724-11.442-11.561-12.025,10.678v-2.78l3.11-11.742V194.5l5.764-7.169-.787-6.568-4.977-1.632,4.977-9.006s-4.136-10.973-4.977-11.479S1021.3,145.67,1021.3,145.67l-10.535-4.227h-5.216s.459,1.846-2.363,1.813a12.951,12.951,0,0,1-5.689-1.813s-9.415,1.19-10.059,1.813-5.733,4.834-5.733,4.834l-9.278,3.063-8.535,4.959-3.021,2.53a9.414,9.414,0,0,1,0-3.311c.351-1.416,11.557-10.76,11.557-10.76s2.3-2.274,2.3-3.128V137.5l-9.817-7.868,7.514-7.875-1.479-3.371,4.442-5.461-.66-2.712-2.3-.792s-1.45-1.05-1.479-1.768,0-4.16,0-4.16-2.723-2.483-3.529-2.578-3.527,0-3.527,0l-3.021-3.175-7.128-2.419s-4.73.48-5.362.7a48.352,48.352,0,0,0-4.542,3.912s-1.166,4.106-.993,4.731.993,2.99.993,2.99l-2.643,5.272v3.608l6.324,6.428,8.324,7.844s-3.856.958-4.442,1.132-2.695,2.952-2.695,2.952v5.953l-8.79,10.31s-7.325,6.387-8.833,6.668-12.021-3.258-12.021-3.258-2.721-2.1-3.521-1.79-6.62,3.339-6.62,3.339H897.243s-6.452,4.482-6.936,4.962-6.317,5.757-6.317,5.757l-4.054,5.8-1.822,6.122,1.822,3.064,5.177,1.163,3.789-3.445,3.345,1.481,6.529,3.708s6.277,2.551,5.483,3.013-.786,2.329-.786,2.329l-9.7,7.039-4.869-3.019L875.169,206.07l3.654,4.16-6.774,7.505-.938,3.389s-1.479,3.088-2.362,3.6-33.344,31.661-33.344,31.661l-2.082,14.918,4.4,5.534s4.465,1.151,4.742,0,18.006-19.72,18.006-19.72l3.324,1.278v6.094l-12.769,13.1L821.63,307.754v4.425l-4.845,5.5-6.27,1.451-3.9,4.11-1.077,4.223s4,4.5,4.973,6.094a31.676,31.676,0,0,1,2.053,4.7l6.829,5.551,10.662-2.7,10.509-9.038,4.921-1.5,3.185-5.247,22.446-20.087,10.023-10.8,10.514-6.068L902,282.388s-4.591,10.008-4.732,10.567-2.66,4.719-2.66,4.719l-7.435,10.983-30.952,35.736s.746.479,0,1.725-7.543,10.353-7.543,10.353l-3.6,6.259Z"/>
    <path id="Path_3" data-name="Path 3" class="cls-2" d="M869.574,258.476s.256-2.628.923-2.884c0,0,12.973,3.945,19.784,10.668s7.46,16.224,7.46,16.224l-1.968,1.806-3.147-11.1-5.911-6.929-1.935-1.233-5.422-3.455Z"/>
    <path id="Path_4" data-name="Path 4" class="cls-2" d="M869.574,258.476s.256-2.628.923-2.884c0,0,12.973,3.945,19.784,10.668s7.46,16.224,7.46,16.224l-1.968,1.806-3.147-11.1-5.911-6.929-1.935-1.233-5.422-3.455Z" transform="translate(21.083 75.617) rotate(-3)"/>
    <path id="Path_5" data-name="Path 5" class="cls-3" d="M975.342,178.942a89,89,0,0,0,2.017,9.194c.327.764,9.639,11.189,10.749,11.8s13.365,8.982,14.034,8.459,14.327-9.87,14.327-9.87a19.029,19.029,0,0,0,6.714-10.393c2.137-7.711,1.054-19.922-8.983-24.623a32.1,32.1,0,0,0-11.26-3.1,24.588,24.588,0,0,0-3.045-.049,20.911,20.911,0,0,0-14.628,6.756l-2.842,3.384Z" transform="translate(1)"/>
    <g id="Ellipse_1" data-name="Ellipse 1" class="cls-3" transform="translate(953 106)">
      <circle class="cls-6" cx="4" cy="4" r="4"/>
      <circle class="cls-7" cx="4" cy="4" r="3.5"/>
    </g>
    <path id="Path_6" data-name="Path 6" class="cls-1" d="M1,0S-3.661,5.362-3.911,11.362,0,24,0,24" transform="translate(989.5 229.5)"/>
    <path id="Path_7" data-name="Path 7" class="cls-1" d="M0,0S3.75,6.81,5,12.56A24.433,24.433,0,0,1,5,23" transform="translate(945.5 175.5)"/>
    <path id="Path_8" data-name="Path 8" class="cls-1" d="M-2.287,5.822s21.165,1.5,35.165,15.755,18.031,33.7,18.031,33.7" transform="translate(901.5 227.5)"/>
    <line id="Line_1" data-name="Line 1" class="cls-4" x1="23" y2="24" transform="translate(876.5 214.5)"/>
    <line id="Line_2" data-name="Line 2" class="cls-4" x1="13" y2="14" transform="translate(944.5 160.5)"/>
    <path id="Path_9" data-name="Path 9" class="cls-1" d="M1000.7,186.739c-.561,1.829,4.909,4.862,4.909,4.862l4.167-3.831-.542-1.779-.9-1.292s-2.279-2.372-4.756-1.681C1002.7,183.259,1000.883,186.148,1000.7,186.739Z" transform="translate(-7.018 -13)"/>
    <path id="Path_10" data-name="Path 10" class="cls-5" d="M0,4,4.635,2.73,8,0" transform="translate(1011.5 273.5)"/>
    <path id="Path_11" data-name="Path 11" class="cls-5" d="M0,4,4.635,2.73,8,0" transform="translate(1011.5 273.5)"/>
    <path id="Path_12" data-name="Path 12" class="cls-5" d="M0,4,4.635,2.73,8,0" transform="translate(1011.5 273.5)"/>
    <path id="Path_13" data-name="Path 13" class="cls-5" d="M0,3.316,3.843,2.264,6.633,0" transform="translate(1014.867 276.5)"/>
    <path id="Path_15" data-name="Path 15" class="cls-1" d="M0,5-.943,2.359,0,0" transform="translate(890.5 170.5)"/>
  </g>
</svg>
